<svg viewBox="0 0 512 512" xmlns="http://www.w3.org/2000/svg">
  <defs>
    <linearGradient id="g1" x1="0" y1="0" x2="1" y2="1">
      <stop offset="0" stop-color="#A855F7"/>
      <stop offset="1" stop-color="#D946EF"/>
    </linearGradient>
    <radialGradient id="bgGlow" cx="0.5" cy="0.35" r="0.9">
      <stop offset="0" stop-color="#1E0F3D"/>
      <stop offset="1" stop-color="#0A0118"/>
    </radialGradient>
    <filter id="glow" x="-60%" y="-60%" width="220%" height="220%">
      <feGaussianBlur stdDeviation="14" result="b"/>
      <feMerge>
        <feMergeNode in="b"/>
        <feMergeNode in="SourceGraphic"/>
      </feMerge>
    </filter>
  </defs>

  <!-- app tile -->
  <rect x="8" y="8" width="496" height="496" rx="112" fill="url(#bgGlow)"/>
  <rect x="8" y="8" width="496" height="496" rx="112" fill="none" stroke="url(#g1)" stroke-width="6" opacity="0.85"/>

  <!-- angle brackets -->
  <path d="M96 196 L56 256 L96 316" fill="none" stroke="#8B5CF6" stroke-width="18"
        stroke-linecap="round" stroke-linejoin="round" opacity="0.55"/>
  <path d="M416 196 L456 256 L416 316" fill="none" stroke="#8B5CF6" stroke-width="18"
        stroke-linecap="round" stroke-linejoin="round" opacity="0.55"/>

  <!-- house mark (pagoda) -->
  <g transform="translate(110,106) scale(2.45)" filter="url(#glow)">
    <circle cx="60" cy="7" r="6" fill="url(#g1)"/>
    <path d="M60 16 C 48 34 30 42 10 46 C 4 47.5 4 52 11 52 L109 52 C 116 52 116 47.5 110 46 C 90 42 72 34 60 16 Z"
          fill="url(#g1)"/>
    <rect x="30" y="58" width="60" height="38" rx="7" fill="none" stroke="#C084FC" stroke-width="9"/>
    <rect x="51" y="72" width="18" height="24" rx="8" fill="#D946EF"/>
  </g>
</svg>
